<?xml version="1.0" encoding="utf-8"?>
<!-- Generator: Adobe Illustrator 24.3.0, SVG Export Plug-In . SVG Version: 6.00 Build 0)  -->
<svg version="1.1" id="Layer_1" xmlns="http://www.w3.org/2000/svg" xmlns:xlink="http://www.w3.org/1999/xlink" x="0px" y="0px"
	 viewBox="0 0 1024 1024" style="enable-background:new 0 0 1024 1024;" xml:space="preserve">
<style type="text/css">
	.st0{fill:#FE5C5D;}
	.st1{enable-background:new    ;}
	.st2{fill:#FFFFFF;}
</style>
<path class="st0" d="M200,0h624c110.5,0,200,89.5,200,200v624c0,110.5-89.5,200-200,200H200C89.5,1024,0,934.5,0,824V200
	C0,89.5,89.5,0,200,0z"/>
<g class="st1">
	<path class="st2" d="M407.4,687.7L390,629.5H245.4L228,687.7H92.4L243,274.9h154.2l150.6,412.8H407.4z M273,537.1h89.4l-43.2-147
		h-2.4L273,537.1z"/>
	<path class="st2" d="M819.5,687.7l-10.2-45c-23.2,34.8-56.8,52.2-100.8,52.2c-42.8,0-75.8-14-99-42c-23.2-28-34.8-69.4-34.8-124.2
		c0-54.4,11.6-95.5,34.8-123.3c23.2-27.8,56.2-41.7,99-41.7c36.4,0,66,12.2,88.8,36.6V252.7h119.4v435H819.5z M694.1,513.7v31.8
		c0,40.8,17.2,61.2,51.6,61.2c17.6,0,30.8-6.2,39.6-18.6c8.8-12.4,13.2-28.6,13.2-48.6v-19.8c0-20-4.4-36.3-13.2-48.9
		c-8.8-12.6-22-18.9-39.6-18.9C711.3,451.9,694.1,472.5,694.1,513.7z"/>
</g>
</svg>
