<svg id="Layer_1" data-name="Layer 1" xmlns="http://www.w3.org/2000/svg" viewBox="0 0 1024 469">
  <path d="M50,0H974a50,50,0,0,1,50,50V419a50,50,0,0,1-50,50H50A50,50,0,0,1,0,419V50A50,50,0,0,1,50,0Z" transform="translate(0 0)" fill="#fe5c5d"/>
  <g style="isolation: isolate">
    <path d="M200.2,154.8q23.4,14.7,23.9,43.6v3.3H167.2v-1.1a18,18,0,0,0-6-13.8c-4-3.7-10.2-5.5-18.4-5.5s-14.3,1.2-18.6,3.6-6.5,5.3-6.5,8.8c0,5,2.9,8.6,8.8,11s15.3,4.9,28.3,7.4a299.78,299.78,0,0,1,37.5,9.8A63.73,63.73,0,0,1,218,238.5c7.3,7.7,11.1,18.1,11.3,31.3q0,33.6-22.7,49.8T146,335.8c-29.5,0-52.5-5-68.9-14.8s-24.6-27.4-24.6-52.5H110c0,9.5,2.5,15.9,7.4,19.1s12.6,4.8,23.1,4.8c7.7,0,14.1-.8,19.1-2.5s7.6-5,7.6-10.2c0-4.6-2.8-8-8.4-10.3s-14.7-4.7-27.4-7.3c-15.4-3.3-28.1-6.7-38.2-10.3a64.9,64.9,0,0,1-26.4-17.7c-7.5-8.2-11.3-19.4-11.3-33.5q0-31,24.1-45.8t60.9-14.7Q176.8,140,200.2,154.8Z" transform="translate(0 0)" fill="#fff"/>
    <path d="M352.5,187.3v37.1H321.7v55.3q0,9.9,3.3,14.4c2.2,3,6.2,4.5,12.1,4.5h15.4v32.2a90.39,90.39,0,0,1-17,3.6,145.5,145.5,0,0,1-18.1,1.4c-16.1,0-28.6-2.9-37.3-8.8S267,311.1,267,297V224.4H246.6V187.3h22.6l11.8-44h40.7v44Z" transform="translate(0 0)" fill="#fff"/>
    <path d="M379.7,170.3V133.2h54.7v37.1Zm0,162.2V187.3h54.7V332.5Z" transform="translate(0 0)" fill="#fff"/>
    <path d="M587.8,195.4c13.5,7.6,20.2,19.4,20.2,35.3H557.1c0-5.3-2.4-9.1-7.1-11.3a25.55,25.55,0,0,0-12.4-2.8c-13.2,0-19.8,3.1-19.8,9.4,0,3.5,2.3,6,6.9,7.4s12.1,3,22.5,4.7a235.41,235.41,0,0,1,32.2,6.5,52.48,52.48,0,0,1,22.5,13.2c6.4,6.3,9.6,15.2,9.6,26.5q0,27.75-20.8,39.6t-54.3,11.8a119.86,119.86,0,0,1-36.3-5.4c-11.4-3.6-20.6-9.1-27.8-16.6s-10.7-17-10.7-28.6h50.9v1.1c.2,6.2,2.8,10.6,7.8,13.1a35.56,35.56,0,0,0,16.1,3.7c15.2,0,22.8-3.6,22.8-10.7,0-3.7-2.4-6.3-7.1-8s-12.6-3.4-23.4-5.2a249.8,249.8,0,0,1-32-7.2,53.51,53.51,0,0,1-21.9-13.1c-6.2-6.1-9.3-14.7-9.3-25.7,0-17.8,6.7-30.4,20.2-37.9s31-11.3,52.7-11.3Q567.5,184.05,587.8,195.4Z" transform="translate(0 0)" fill="#fff"/>
    <path d="M712.7,188.9a65.19,65.19,0,0,1,24.8-4.8c16.9,0,29.5,4.7,38,14s12.7,22.8,12.7,40.4v94H733.5V245q0-9.3-4.8-15c-3.2-3.8-7.7-5.6-13.6-5.6q-10.2,0-16.5,6.6a22.57,22.57,0,0,0-6.3,16.2v85.2H637.6V133.2h54.7v69.3A59.37,59.37,0,0,1,712.7,188.9Z" transform="translate(0 0)" fill="#fff"/>
    <path d="M896.2,188.9a65.19,65.19,0,0,1,24.8-4.8c16.9,0,29.5,4.7,38,14s12.7,22.8,12.7,40.4v94H917V245q0-9.3-4.8-15c-3.2-3.8-7.7-5.6-13.6-5.6q-10.2,0-16.5,6.6a22.57,22.57,0,0,0-6.3,16.2v85.2H821.1V133.2h54.7v69.3A57.54,57.54,0,0,1,896.2,188.9Z" transform="translate(0 0)" fill="#fff"/>
  </g>
</svg>
