<?xml version="1.0" encoding="utf-8"?>
<!-- Generator: Adobe Illustrator 24.3.0, SVG Export Plug-In . SVG Version: 6.00 Build 0)  -->
<svg version="1.1" id="Layer_1" xmlns="http://www.w3.org/2000/svg" xmlns:xlink="http://www.w3.org/1999/xlink" x="0px" y="0px"
	 viewBox="0 0 1024 1024" style="enable-background:new 0 0 1024 1024;" xml:space="preserve">
<style type="text/css">
	.st0{fill:#FE5C5D;}
	.st1{enable-background:new    ;}
	.st2{fill:#FFFFFF;}
</style>
<path class="st0" d="M200,0h624c110.5,0,200,89.5,200,200v624c0,110.5-89.5,200-200,200H200C89.5,1024,0,934.5,0,824V200
	C0,89.5,89.5,0,200,0z"/>
<g class="st1">
	<path class="st2" d="M431,426.8c29.4,16.6,44.1,42.3,44.1,77.1h-111c0-11.6-5.2-19.8-15.6-24.6c-7.2-4-16.2-6-27-6
		c-28.8,0-43.2,6.8-43.2,20.4c0,7.6,5,13,15,16.2c10,3.2,26.4,6.6,49.2,10.2c28,4,51.4,8.7,70.2,14.1c18.8,5.4,35.2,15,49.2,28.8
		c14,13.8,21,33.1,21,57.9c0,40.4-15.1,69.2-45.3,86.4c-30.2,17.2-69.7,25.8-118.5,25.8c-28,0-54.4-3.9-79.2-11.7
		c-24.8-7.8-45-19.9-60.6-36.3c-15.6-16.4-23.4-37.2-23.4-62.4h111v2.4c0.4,13.6,6.1,23.1,17.1,28.5c11,5.4,22.7,8.1,35.1,8.1
		c33.2,0,49.8-7.8,49.8-23.4c0-8-5.2-13.8-15.6-17.4c-10.4-3.6-27.4-7.4-51-11.4c-28.4-4.8-51.7-10-69.9-15.6
		c-18.2-5.6-34.1-15.1-47.7-28.5c-13.6-13.4-20.4-32.1-20.4-56.1c0-38.8,14.7-66.4,44.1-82.8c29.4-16.4,67.7-24.6,114.9-24.6
		C365.7,401.9,401.6,410.2,431,426.8z"/>
	<path class="st2" d="M703.7,412.4c17.2-7,35.2-10.5,54-10.5c36.8,0,64.4,10.2,82.8,30.6c18.4,20.4,27.6,49.8,27.6,88.2v205.2H748.7
		V535.1c0-13.6-3.5-24.5-10.5-32.7c-7-8.2-16.9-12.3-29.7-12.3c-14.8,0-26.8,4.8-36,14.4c-9.2,9.6-13.8,21.4-13.8,35.4v186H539.3
		v-435h119.4v151.2C671.5,429.3,686.5,419.4,703.7,412.4z"/>
</g>
</svg>
